<svg xmlns="http://www.w3.org/2000/svg" viewBox="0 0 128 128">
  <defs>
    <radialGradient id="starGlow" cx="36%" cy="26%" r="74%">
      <stop offset="0" stop-color="#fff5b8"/>
      <stop offset="0.5" stop-color="#ffd86f"/>
      <stop offset="1" stop-color="#f5ad4d"/>
    </radialGradient>
    <linearGradient id="edgeWarm" x1="26" y1="8" x2="100" y2="120" gradientUnits="userSpaceOnUse">
      <stop offset="0" stop-color="#fff8c8"/>
      <stop offset="0.55" stop-color="#ffc95f"/>
      <stop offset="1" stop-color="#f2a344"/>
    </linearGradient>
    <filter id="softShadow" x="-20%" y="-20%" width="140%" height="150%">
      <feDropShadow dx="0" dy="5" stdDeviation="4" flood-color="#28455f" flood-opacity="0.18"/>
    </filter>
  </defs>
  <path filter="url(#softShadow)" d="M64 8 79.4 43.6 118 47.2 88.9 72.8 97.5 110.6 64 91.1 30.5 110.6 39.1 72.8 10 47.2 48.6 43.6Z" fill="url(#starGlow)" stroke="#24384f" stroke-width="6" stroke-linejoin="round"/>
  <path d="M64 15.5 76 44.8 107.8 49.3 83.6 70.1 90.8 100.2 64 84.3 37.2 100.2 44.4 70.1 20.2 49.3 52 44.8Z" fill="none" stroke="url(#edgeWarm)" stroke-width="2.5" stroke-linejoin="round" opacity="0.74"/>
  <path d="M36 49.5C44 29 61.8 20.7 78.5 27.4 62 25.7 47.3 34.4 40.2 52.1Z" fill="#fff9cf" opacity="0.7"/>
  <circle cx="43" cy="35" r="4.4" fill="#fff7c3" opacity="0.78"/>
  <circle cx="83" cy="33" r="3.2" fill="#fff9d8" opacity="0.58"/>
  <path d="M32 84.2C45 95.1 78.3 99.7 95.4 78.7" fill="none" stroke="#fff3b0" stroke-width="4" stroke-linecap="round" opacity="0.38"/>
</svg>
